<svg width="30" height="36" viewBox="0 0 30 36" fill="none" xmlns="http://www.w3.org/2000/svg">
<g clip-path="url(#clip0_85_105)">
<path fill-rule="evenodd" clip-rule="evenodd" d="M13.7772 0V2.20978C16.8347 2.14328 19.893 2.16495 22.9512 2.1658C24.0429 2.16609 25.1348 2.16394 26.2264 2.15389C26.3141 2.15389 26.396 2.15726 26.4753 2.16234C26.4754 2.16234 26.4756 2.16233 26.4757 2.16234C27.3757 2.22006 27.7481 2.6108 27.7775 3.45409C27.7787 3.49057 27.7806 3.52634 27.7806 3.56453C27.7806 4.25416 27.7819 5.64504 27.7829 6.90819C27.7834 7.47454 27.7841 7.83779 27.7841 8.40737C27.7912 14.3071 27.7992 20.2068 27.7806 26.1065C27.783 26.1805 27.7826 26.2545 27.7827 26.3283C27.7863 28.0446 27.175 29.7204 26.0759 31.0559C24.6473 32.833 22.3192 33.8572 20.0437 33.8334C18.5098 33.8367 16.998 33.3283 15.7712 32.4871C14.7073 31.7689 13.8102 30.7561 13.2491 29.6173C12.7049 28.6054 12.5163 27.4528 12.4803 26.3283H12.4787C12.4755 26.2272 12.4732 26.126 12.4723 26.0255C12.5064 25.4768 12.398 24.9062 12.4633 24.36H10.2634V26.3283C10.2634 27.5984 10.5187 28.8561 11.0146 30.0295C11.5105 31.203 12.2374 32.2692 13.1538 33.1673C14.0701 34.0654 15.158 34.7778 16.3553 35.2638C17.5526 35.7499 18.8358 36 20.1317 36C21.4276 36 22.7109 35.7499 23.9082 35.2638C25.1054 34.7778 26.1933 34.0654 27.1097 33.1673C28.026 32.2692 28.7529 31.203 29.2489 30.0295C29.7448 28.8561 30 27.5984 30 26.3283V3.4541C30 3.0005 29.9089 2.55134 29.7317 2.13227C29.5546 1.7132 29.295 1.33242 28.9678 1.01168C28.6405 0.69094 28.252 0.436513 27.8244 0.262928C27.3968 0.0893439 26.9385 -2.84088e-07 26.4757 0H22.9512H13.7772ZM14.3396 4.73664C14.1569 4.75755 13.9655 4.76311 13.7772 4.74566V6.90819H22.9512V26.3283C22.9512 26.6912 22.8783 27.0506 22.7366 27.3858C22.5949 27.7211 22.3872 28.0257 22.1254 28.2823C21.8636 28.5389 21.5528 28.7424 21.2107 28.8813C20.8686 29.0202 20.502 29.0916 20.1317 29.0916C19.7615 29.0916 19.3948 29.0202 19.0528 28.8813C18.7107 28.7424 18.3999 28.5389 18.138 28.2823C17.8762 28.0257 17.6686 27.7211 17.5269 27.3858C17.3852 27.0506 17.3123 26.6912 17.3123 26.3283V24.36H15.0854C15.1658 24.9527 15.0665 25.6394 15.0989 26.2744C15.0984 26.2924 15.099 26.3103 15.0987 26.3283C15.0628 28.6352 16.9249 30.7954 19.2413 31.1762C21.9274 31.745 24.8101 29.6629 25.1116 26.9984C25.1138 26.7973 25.1151 26.5414 25.1171 26.3283C25.1777 19.8628 25.1604 8.5634 25.1592 6.90819H25.1594C25.1594 6.81599 25.159 6.46877 25.159 6.42172C25.159 6.28875 25.1506 6.16376 25.1336 6.04683C25.1165 5.9299 25.0908 5.82106 25.0562 5.72034C25.0219 5.62062 24.9785 5.52899 24.9264 5.44532C24.9255 5.4438 24.9246 5.44222 24.9237 5.4407C24.8712 5.35715 24.8098 5.28154 24.7389 5.21427C24.6674 5.14646 24.5866 5.08696 24.4959 5.03585C24.4052 4.98474 24.3049 4.94218 24.1945 4.90795C24.0841 4.87371 23.9637 4.84794 23.833 4.83074C23.7023 4.81354 23.5612 4.80481 23.4097 4.80481C22.1975 4.80481 17.3627 4.76963 14.3396 4.73663L14.3396 4.73664Z" fill="#5796F7"/>
<path fill-rule="evenodd" clip-rule="evenodd" d="M13.7772 0V2.20978C16.8347 2.14328 19.893 2.16495 22.9512 2.1658C23.9935 2.16609 25.0358 2.16339 26.0781 2.15447C25.3955 1.37085 24.6415 0.649721 23.8255 0H22.9512H13.7772ZM27.7812 4.47986C27.7816 5.21442 27.7822 5.99083 27.7829 6.90819C27.7834 7.47454 27.7841 7.83779 27.7841 8.40737C27.7895 12.8942 27.7917 17.3812 27.7861 21.8681C28.8997 20.034 29.6508 18.0107 30 15.904V10.4343C29.6481 8.33063 28.8954 6.31066 27.7812 4.47986H27.7812ZM14.3396 4.73664C14.1569 4.75755 13.9655 4.7631 13.7772 4.74566V6.90819H22.9512V26.3283C22.9497 26.5875 22.911 26.8451 22.8363 27.0937C23.6527 26.5311 24.4179 25.9005 25.1236 25.2089C25.1738 18.6412 25.1603 8.47962 25.1592 6.90819H25.1594C25.1594 6.81599 25.159 6.46877 25.159 6.42172C25.159 6.28875 25.1506 6.16376 25.1336 6.04683C25.1165 5.9299 25.0908 5.82106 25.0562 5.72034C25.0219 5.62062 24.9785 5.52899 24.9264 5.44532C24.9255 5.4438 24.9246 5.44222 24.9237 5.4407C24.8712 5.35715 24.8098 5.28154 24.7389 5.21427C24.6675 5.14646 24.5866 5.08696 24.4959 5.03585C24.4053 4.98474 24.3049 4.94218 24.1945 4.90794C24.0841 4.87371 23.9637 4.84794 23.833 4.83074C23.7023 4.81354 23.5612 4.80481 23.4097 4.80481C22.1975 4.80481 17.3627 4.76963 14.3396 4.73663L14.3396 4.73664ZM10.2634 24.36V26.3283C10.2738 27.6139 10.5456 28.8845 11.0629 30.0659C11.6716 30.1332 12.2834 30.1689 12.8959 30.1727C13.1123 30.1687 13.3285 30.1608 13.5446 30.1489C13.439 29.9748 13.3383 29.7984 13.2491 29.6173C12.7049 28.6054 12.5163 27.4528 12.4803 26.3283H12.4787C12.4755 26.2272 12.4732 26.126 12.4723 26.0255C12.5064 25.4768 12.398 24.9062 12.4633 24.36H10.2634ZM15.0854 24.36C15.1658 24.9527 15.0665 25.6394 15.0989 26.2744C15.0984 26.2924 15.099 26.3103 15.0987 26.3283C15.0786 27.6209 15.6547 28.8671 16.5723 29.7803C17.506 29.5826 18.4215 29.3095 19.3093 28.9639C18.7326 28.7916 18.2276 28.4426 17.8681 27.9683C17.5087 27.4939 17.3139 26.9192 17.3123 26.3283V24.36H15.0854Z" fill="#0054E7" fill-opacity="0.265583"/>
<path fill-rule="evenodd" clip-rule="evenodd" d="M13.7772 20.9059C13.3143 20.9059 12.856 20.9952 12.4285 21.1688C12.0009 21.3424 11.6124 21.5968 11.2851 21.9176C10.9578 22.2383 10.6982 22.6191 10.5211 23.0382C10.344 23.4572 10.2528 23.9064 10.2528 24.36C10.2534 25.0729 10.479 25.7682 10.8987 26.3505C11.3185 26.9328 11.9118 27.3735 12.5973 27.6122C12.5969 27.6095 12.5966 27.6068 12.5961 27.6042C12.5768 27.4844 12.5605 27.3641 12.5461 27.2437C12.5445 27.2297 12.5425 27.2158 12.5409 27.2018C12.5274 27.0841 12.5166 26.9664 12.5074 26.8486C12.5059 26.8295 12.5042 26.8105 12.5028 26.7914C12.4947 26.6793 12.4884 26.5673 12.4836 26.4555C12.4775 26.3117 12.4735 26.1682 12.4723 26.0255C12.4751 25.9792 12.4769 25.9328 12.478 25.8862C12.4811 25.7466 12.4768 25.6059 12.4701 25.4647C12.4613 25.2764 12.4484 25.0876 12.4435 24.8996C12.4386 24.7118 12.4419 24.5249 12.4652 24.341C12.4652 24.3409 12.4652 24.3409 12.4652 24.3408C12.4769 24.2488 12.4937 24.1576 12.517 24.0673C12.517 24.0672 12.5169 24.0672 12.517 24.0671C12.5286 24.022 12.5418 23.9771 12.5569 23.9325C12.5569 23.9324 12.5569 23.9324 12.5569 23.9323C12.5721 23.8876 12.5891 23.8433 12.6081 23.7992C12.6701 23.6409 12.7674 23.5074 12.8879 23.4001C12.9481 23.3464 13.0141 23.2993 13.0844 23.2589C13.19 23.1984 13.3053 23.153 13.4252 23.1233C13.5006 23.1047 13.5779 23.0927 13.6557 23.0866C13.7016 23.0831 13.7478 23.0812 13.7938 23.082C13.9594 23.0852 14.1242 23.1174 14.2765 23.18C14.6212 23.2847 14.8507 23.5567 14.9727 23.8729C14.9776 23.8856 14.9807 23.8989 14.9853 23.9117C15.0185 24.0055 15.0441 24.102 15.0591 24.1994C15.1066 24.4344 15.1192 24.6875 15.1181 24.9486C15.1177 25.0356 15.1158 25.1235 15.1132 25.2119C15.1132 25.212 15.1132 25.212 15.1132 25.2121C15.1081 25.3889 15.1001 25.5678 15.0956 25.7458C15.0956 25.7459 15.0956 25.7459 15.0956 25.746C15.0933 25.835 15.092 25.9237 15.0922 26.0118C15.0925 26.1001 15.0945 26.1877 15.0989 26.2744C15.0971 26.3389 15.0972 26.4034 15.0983 26.4678C15.0987 26.4877 15.0994 26.5076 15.1001 26.5275C15.1015 26.5726 15.1037 26.6176 15.1065 26.6625C15.108 26.685 15.1093 26.7075 15.1111 26.7299C15.1155 26.7857 15.121 26.8415 15.1275 26.897C15.1318 26.9329 15.137 26.9686 15.1422 27.0044C15.1454 27.0268 15.1488 27.0491 15.1524 27.0714C15.1587 27.1109 15.1652 27.1502 15.1726 27.1895C15.175 27.2026 15.1779 27.2156 15.1804 27.2287C15.1979 27.3174 15.2177 27.4057 15.2404 27.4931C15.2409 27.4952 15.2414 27.4974 15.2419 27.4995C15.856 27.2245 16.3765 26.7824 16.7416 26.2258C17.1067 25.6693 17.3011 25.0216 17.3015 24.36C17.3015 23.9064 17.2103 23.4572 17.0332 23.0381C16.8561 22.6191 16.5965 22.2383 16.2692 21.9176C15.942 21.5968 15.5534 21.3424 15.1259 21.1688C14.6983 20.9952 14.24 20.9059 13.7772 20.9059L13.7772 20.9059Z" fill="#0054E7"/>
<path fill-rule="evenodd" clip-rule="evenodd" d="M13.7772 0C13.3143 -4.13219e-07 12.856 0.0893409 12.4285 0.262925C12.0009 0.43651 11.6124 0.690936 11.2851 1.01168C10.9578 1.33242 10.6982 1.7132 10.5211 2.13227C10.344 2.55134 10.2528 3.0005 10.2528 3.4541C10.2528 3.90769 10.344 4.35685 10.5211 4.77592C10.6982 5.19499 10.9578 5.57577 11.2851 5.89651C11.6123 6.21726 12.0009 6.47168 12.4285 6.64527C12.856 6.81885 13.3143 6.90819 13.7772 6.90819C14.4768 6.9079 15.1606 6.70351 15.7413 6.32106C16.322 5.93861 16.7735 5.39541 17.0381 4.76064C16.1074 4.75246 15.1219 4.74517 14.3396 4.73663C13.7978 4.79867 13.1775 4.73033 12.7962 4.30355C12.1272 3.6724 12.537 2.44668 13.4001 2.21707C14.6158 2.18765 15.8316 2.17389 17.0475 2.16714C16.7854 1.52725 16.3338 0.978902 15.751 0.59268C15.1682 0.206457 14.4807 3.88799e-05 13.7772 0Z" fill="#0054E7"/>
<path fill-rule="evenodd" clip-rule="evenodd" d="M11.3691 15.9674C10.8772 15.9673 10.4054 16.1589 10.0575 16.4998C9.70962 16.8407 9.51417 17.3031 9.51413 17.7852C9.51412 18.024 9.56209 18.2604 9.65531 18.481C9.74853 18.7015 9.88517 18.902 10.0574 19.0708C10.2297 19.2396 10.4342 19.3735 10.6592 19.4649C10.8843 19.5562 11.1255 19.6033 11.3691 19.6033C11.8611 19.6032 12.3329 19.4117 12.6807 19.0707C13.0286 18.7298 13.224 18.2674 13.2239 17.7852C13.2239 17.3031 13.0285 16.8407 12.6806 16.4998C12.3328 16.1589 11.8611 15.9674 11.3691 15.9674ZM11.3801 17.4163C11.4874 17.4183 11.5872 17.4771 11.6552 17.5576C11.8923 17.809 11.6098 18.2166 11.2856 18.1354C10.8789 18.0849 10.9595 17.4436 11.3337 17.4191C11.3492 17.417 11.3647 17.416 11.3801 17.4163V17.4163Z" fill="#0054E7"/>
<path fill-rule="evenodd" clip-rule="evenodd" d="M8.08837 9.80888C7.33405 9.80887 6.61062 10.1025 6.07721 10.6253C5.5438 11.148 5.24412 11.857 5.24408 12.5963C5.24407 12.9624 5.31764 13.3249 5.46057 13.6631C5.60351 14.0013 5.81302 14.3086 6.07714 14.5675C6.34126 14.8263 6.65481 15.0316 6.9999 15.1717C7.34499 15.3118 7.71485 15.3839 8.08837 15.3839C8.84269 15.3839 9.56611 15.0902 10.0995 14.5674C10.6328 14.0446 10.9325 13.3356 10.9325 12.5963C10.9324 11.857 10.6328 11.1481 10.0994 10.6253C9.56604 10.1026 8.84266 9.80892 8.08837 9.80888ZM8.08404 11.2574C8.37707 11.2581 8.66757 11.3582 8.9015 11.5303C9.56147 11.9642 9.61502 12.964 9.07167 13.5081C8.5273 14.1426 7.41377 14.014 6.9646 13.3388C6.33696 12.5566 7.03521 11.2685 8.02525 11.2586C8.04479 11.2578 8.0645 11.2573 8.08404 11.2574V11.2574Z" fill="#4085F3"/>
<path fill-rule="evenodd" clip-rule="evenodd" d="M3.87462 2.1346C2.84698 2.13463 1.86145 2.53476 1.13482 3.24695C0.408185 3.95914 -1.96066e-05 4.92506 7.06318e-10 5.93222C3.5207e-05 6.93935 0.408264 7.90521 1.13489 8.61736C1.86151 9.32951 2.84702 9.7296 3.87462 9.72964C4.90226 9.72966 5.88782 9.32959 6.61449 8.61743C7.34116 7.90528 7.74942 6.93938 7.74945 5.93222C7.74946 5.43351 7.64924 4.93967 7.45452 4.47892C7.25979 4.01817 6.97437 3.59952 6.61456 3.24687C6.25475 2.89423 5.82759 2.6145 5.35747 2.42366C4.88735 2.23281 4.38347 2.13459 3.87462 2.1346ZM3.85812 3.58794C3.91203 3.58779 3.96591 3.58906 4.01984 3.593C5.12669 3.62677 6.09086 4.52796 6.23809 5.59279C6.45742 6.76198 5.57686 7.95588 4.41134 8.20978C3.26253 8.52074 1.99426 7.77875 1.61532 6.69215C1.28783 5.86138 1.55643 4.88663 2.20031 4.2753C2.57192 3.90135 3.1239 3.61564 3.6964 3.59178V3.59199C3.75037 3.58978 3.80421 3.5881 3.85812 3.58795V3.58794Z" fill="#5796F7"/>
</g>
<defs>
<clipPath id="clip0_85_105">
<rect width="30" height="36" fill="white"/>
</clipPath>
</defs>
</svg>
